PathFileType	4	(X/Y/Z)	Walk5.trc
DataRate	CameraRate	NumFrames	NumMarkers	Units	OrigDataRate	OrigDataStartFrame	OrigNumFrames
200.000000	200.000000	4	59	mm	200.000000	378	531
Frame#	Times		RFHD		CLAV		RASI		RACR1		RUA1		RFA1		LUA1		LFA1		LWRR		LWRU		RTH1		LTH2		LCAR		LACR1		LFHD		RBack		RCAR		LTH4		LTH3		T10		LLFC		C7		RWRR		LASI		RWRU		RElbow		LTB2		LToe		LBHD		RBHD		LTH1		STRN		RTB1		LTB4		RTH4		RPSI		RTH2		RMT1		LMMAL		LTB1		LMT1		LCAL		LElbow		LTB3		LMT5		RTB2		RElbowM		RTH3		RLFC		LElbowM		RTB4		LLMAL		LPSI		RTB3		RCAL		RToe		RMMAL		RLMAL		RMT5
			X1	Y1	Z1	X2	Y2	Z2	X3	Y3	Z3	X4	Y4	Z4	X5	Y5	Z5	X6	Y6	Z6	X7	Y7	Z7	X8	Y8	Z8	X9	Y9	Z9	X10	Y10	Z10	X11	Y11	Z11	X12	Y12	Z12	X13	Y13	Z13	X14	Y14	Z14	X15	Y15	Z15	X16	Y16	Z16	X17	Y17	Z17	X18	Y18	Z18	X19	Y19	Z19	X20	Y20	Z20	X21	Y21	Z21	X22	Y22	Z22	X23	Y23	Z23	X24	Y24	Z24	X25	Y25	Z25	X26	Y26	Z26	X27	Y27	Z27	X28	Y28	Z28	X29	Y29	Z29	X30	Y30	Z30	X31	Y31	Z31	X32	Y32	Z32	X33	Y33	Z33	X34	Y34	Z34	X35	Y35	Z35	X36	Y36	Z36	X37	Y37	Z37	X38	Y38	Z38	X39	Y39	Z39	X40	Y40	Z40	X41	Y41	Z41	X42	Y42	Z42	X43	Y43	Z43	X44	Y44	Z44	X45	Y45	Z45	X46	Y46	Z46	X47	Y47	Z47	X48	Y48	Z48	X49	Y49	Z49	X50	Y50	Z50	X51	Y51	Z51	X52	Y52	Z52	X53	Y53	Z53	X54	Y54	Z54	X55	Y55	Z55	X56	Y56	Z56	X57	Y57	Z57	X58	Y58	Z58	X59	Y59	Z59

378	1.89	61.555	1418.8	43.32	49.888	1175.8	-12.093	58.107	807.11	135.02	-29.408	1198.4	166.14	-35.939	1061.2	248.32	35.559	825.96	306.94	13.593	1046.2	-276.36	86.496	863.13	-324.35	167.58	793.07	-295.06	128.32	757.2	-328.28	1.6291	627.92	192.3	4.3319	558.95	-191.9	185.85	740.63	-333.59	-18.825	1203.6	-202.28	69.2	1428.6	-52.622	-142.81	1132.6	98.018	76.007	677.15	338.02	-48.671	553.78	-216.71	-53.987	469.27	-193.35	-174.14	1056.2	-10.756	-45.433	366.94	-162.19	-92.091	1258.5	-15.799	79.331	734.78	284.96	25.225	802.84	-177.86	21.547	720.63	325.16	-35.752	933.49	284.12	-160.64	217.18	-146.04	-154.66	25.473	-71.629	-53.347	1344	-80.491	-63.248	1338.8	51.9	-44.091	639.3	-231.16	103.26	1069.3	-8.4437	124.86	302.72	66.027	-144.03	207.01	-86.914	22.556	546.18	170.78	-206.72	833.43	57.064	76.036	567.59	151.95	236.53	47.367	15.786	-259.3	119.23	-33.399	-81.666	268.18	-94.399	-201.74	32.82	-45.52	-328.25	130.56	-67.918	-8.2866	927.94	-309.46	-199.05	144.84	-81.37	-242.22	37.571	-129.4	101.73	207.12	107.58	-76.13	895.65	210.77	46.982	467.36	141.17	49.872	386.76	118.58	-41.101	894.6	-248.52	135.66	216.43	57.303	-286.18	116.27	-112.14	-223.95	840.41	-49.236	152.4	134.42	48.793	70.694	27.089	35.451	284.44	59.15	52.453	132.04	72.589	1.0409	121.12	59.44	82.673	212.82	29.062	102.98
379	1.895	67.344	1419	44.395	55.743	1175.8	-10.959	64.788	806.75	134.99	-22.747	1198.1	167.57	-28.965	1060.7	249.42	42.301	825.18	307.39	18.51	1046.1	-275.06	91.281	863.31	-323.14	172.26	793.13	-294.09	132.95	757.27	-327.27	8.5226	628.8	192.22	12.554	559.66	-191.82	190.48	740.68	-332.65	-13.553	1203.7	-200.96	74.764	1428.8	-51.56	-136.45	1132.6	99.784	82.426	676.28	338.32	-40.276	553.93	-216.87	-44.578	469.27	-193.91	-168.37	1056.5	-9.0885	-35.315	366.91	-163.16	-86.075	1258.7	-14.126	85.859	733.91	285.3	30.685	803.22	-177.06	28.046	719.84	325.5	-28.748	932.85	284.75	-153.18	219.39	-146.85	-154.45	25.466	-71.702	-47.703	1343.9	-79.162	-57.313	1338.8	53.255	-36.747	639.54	-230.93	109.17	1069.3	-7.2864	129.02	302.11	66.411	-136.33	208.58	-87.903	29.357	547.1	170.62	-200.79	833.41	57.925	82.645	568.51	151.27	237.48	44.505	15.537	-253.28	123.26	-34.011	-72.703	268.43	-95.602	-200.29	33.423	-45.586	-321.76	136.98	-68.204	-3.4692	928.15	-308.28	-192.67	147.63	-82.199	-239.96	40.167	-129.33	104.76	206.71	107.79	-69.311	895.24	211.41	53.591	468.17	141.22	54.868	387.03	119.12	-36.331	894.76	-247.29	138.76	215.72	57.536	-280.62	121.11	-112.46	-218.26	839.62	-48.464	154.47	133.52	48.849	71.046	27.768	35.397	285.95	55.219	52.118	133.27	71.98	0.93999	122.1	59.156	82.605	213.21	27.294	103.3
380	1.9	73.138	1419.2	45.462	61.584	1175.9	-9.8459	71.395	806.58	135	-16.044	1197.9	168.99	-21.889	1060.2	250.5	49.096	824.47	307.8	23.35	1046.2	-273.78	95.966	863.5	-321.9	176.81	793.15	-293.13	137.42	757.32	-326.26	15.389	629.76	192.2	20.903	560.49	-191.7	194.91	740.67	-331.75	-8.2699	1203.9	-199.65	80.338	1429	-50.503	-130.09	1132.8	101.54	88.885	675.47	338.56	-31.727	554.17	-217.04	-34.968	469.35	-194.48	-162.63	1056.8	-7.4496	-24.974	367	-164.11	-80.055	1259	-12.471	92.418	733.11	285.59	36.134	803.68	-176.27	34.589	719.13	325.8	-21.669	932.3	285.35	-145.37	221.71	-147.65	-153.96	25.498	-71.867	-42.051	1344	-77.845	-51.373	1338.9	54.598	-29.301	639.84	-230.7	115.05	1069.4	-6.1189	133.11	301.53	66.8	-128.27	210.23	-88.892	36.099	548.1	170.57	-194.91	833.47	58.721	89.193	569.48	150.67	238.26	41.933	15.262	-246.8	127.32	-34.612	-63.45	268.78	-96.805	-198.47	34.19	-45.697	-314.78	143.41	-68.452	1.2662	928.39	-307.06	-185.89	150.5	-83.028	-237.3	42.959	-129.27	107.72	206.34	108.02	-62.445	894.93	212.03	60.131	469.04	141.36	59.924	387.35	119.65	-31.613	894.98	-246	141.75	215.05	57.758	-274.61	126.03	-112.77	-212.59	838.85	-47.744	156.42	132.67	48.889	71.339	28.383	35.367	287.25	51.698	51.729	134.35	71.448	0.83534	122.98	58.932	82.533	213.52	25.817	103.62
381	1.905	78.94	1419.5	46.521	67.408	1176	-8.758	77.924	806.59	135.07	-9.3128	1197.8	170.37	-14.718	1059.9	251.56	55.944	823.85	308.18	28.121	1046.3	-272.52	100.55	863.7	-320.65	181.21	793.11	-292.2	141.72	757.34	-325.25	22.195	630.8	192.27	29.35	561.41	-191.54	199.17	740.6	-330.87	-2.9784	1204.2	-198.35	85.923	1429.3	-49.453	-123.73	1133	103.29	95.387	674.74	338.75	-23.054	554.49	-217.2	-25.194	469.52	-195.04	-156.91	1057.2	-5.8475	-14.456	367.23	-165	-74.042	1259.3	-10.841	99.006	732.37	285.82	41.575	804.22	-175.49	41.179	718.5	326.09	-14.519	931.85	285.93	-137.26	224.13	-148.42	-153.1	25.581	-72.143	-36.394	1344.1	-76.544	-45.43	1339	55.923	-21.773	640.22	-230.48	120.9	1069.6	-4.9488	137.12	300.98	67.184	-119.9	211.97	-89.865	42.745	549.15	170.64	-189.1	833.59	59.448	95.648	570.47	150.19	238.89	39.663	14.967	-239.89	131.38	-35.191	-53.947	269.25	-97.987	-196.22	35.142	-45.864	-307.34	149.79	-68.658	5.9208	928.66	-305.79	-178.73	153.42	-83.846	-234.22	45.935	-129.23	110.6	206.02	108.25	-55.533	894.7	212.64	66.561	469.96	141.62	65.027	387.73	120.17	-26.947	895.25	-244.64	144.63	214.43	57.963	-268.16	130.97	-113.05	-206.96	838.09	-47.079	158.23	131.88	48.904	71.579	28.928	35.359	288.35	48.598	51.295	135.26	70.994	0.72908	123.76	58.76	82.457	213.75	24.618	103.9
